M48
; DRILL file {KiCad 7.0.4} date Sun 09 Jul 2023 08:25:26 PM CEST
; FORMAT={-:-/ absolute / inch / decimal}
; #@! TF.CreationDate,2023-07-09T20:25:26+02:00
; #@! TF.GenerationSoftware,Kicad,Pcbnew,7.0.4
; #@! TF.FileFunction,Plated,1,4,PTH
FMAT,2
INCH
; #@! TA.AperFunction,Plated,PTH,ViaDrill
T1C0.0079
; #@! TA.AperFunction,Plated,PTH,ComponentDrill
T2C0.0315
; #@! TA.AperFunction,Plated,PTH,ComponentDrill
T3C0.0394
; #@! TA.AperFunction,Plated,PTH,ComponentDrill
T4C0.0433
; #@! TA.AperFunction,Plated,PTH,ComponentDrill
T5C0.0472
; #@! TA.AperFunction,Plated,PTH,ComponentDrill
T6C0.0591
%
G90
G05
T1
X3.9843Y-2.0157
X3.9843Y-2.9055
X3.9843Y-5.0709
X4.0197Y-3.6102
X4.0197Y-3.748
X4.0472Y-3.8543
X4.0472Y-4.1181
X4.0472Y-4.3307
X4.0472Y-4.6181
X4.0472Y-4.9016
X4.0512Y-2.4331
X4.0512Y-2.5039
X4.0512Y-2.5591
X4.0669Y-3.5079
X4.0748Y-2.3819
X4.0787Y-2.622
X4.1024Y-3.189
X4.1024Y-3.2205
X4.1024Y-3.252
X4.1024Y-3.2874
X4.1024Y-3.3189
X4.1024Y-3.3504
X4.1063Y-2.5039
X4.1063Y-2.9134
X4.112Y-2.5591
X4.1181Y-2.6693
X4.1181Y-2.7205
X4.1181Y-2.7717
X4.1181Y-2.8346
X4.126Y-2.3268
X4.126Y-2.3701
X4.1339Y-3.189
X4.1339Y-3.2205
X4.1339Y-3.252
X4.1339Y-3.2874
X4.1339Y-3.3189
X4.1339Y-3.3504
X4.1339Y-3.4094
X4.1339Y-3.5039
X4.1496Y-3.437
X4.1535Y-2.8937
X4.1535Y-3.1142
X4.1575Y-3.3898
X4.1654Y-3.1417
X4.1654Y-3.189
X4.1654Y-3.2205
X4.1654Y-3.252
X4.1654Y-3.2874
X4.1654Y-3.3189
X4.1654Y-3.3504
X4.1732Y-2.3031
X4.1732Y-3.0167
X4.1732Y-3.4173
X4.174Y-2.5563
X4.1772Y-3.6102
X4.1772Y-3.6811
X4.1811Y-2.6693
X4.1811Y-2.7205
X4.1811Y-2.7717
X4.1811Y-2.8307
X4.185Y-3.1102
X4.185Y-3.4488
X4.189Y-4.5984
X4.189Y-4.8504
X4.2008Y-2.937
X4.2008Y-3.0827
X4.2087Y-3.4252
X4.2165Y-3.1102
X4.2205Y-2.4173
X4.2222Y-2.5591
X4.2244Y-2.874
X4.2244Y-3.4528
X4.2283Y-2.3031
X4.2323Y-3.0827
X4.2402Y-2.9764
X4.2441Y-3.4252
X4.248Y-3.1102
X4.2598Y-2.9094
X4.2598Y-3.4528
X4.2638Y-3.0827
X4.2756Y-3.4252
X4.2795Y-3.1102
X4.2835Y-2.315
X4.2835Y-2.3858
X4.2874Y-3.6063
X4.2913Y-2.9409
X4.2913Y-3.4528
X4.2913Y-3.6457
X4.2953Y-3.0315
X4.2953Y-3.0827
X4.3071Y-3.4252
X4.3089Y-2.5354
X4.3089Y-2.5748
X4.311Y-3.1102
X4.315Y-3.7972
X4.3189Y-3.7618
X4.3228Y-3.4528
X4.3268Y-3.0827
X4.3268Y-3.8307
X4.3307Y-3.6575
X4.3325Y-2.5512
X4.3386Y-2.9882
X4.3386Y-3.4252
X4.3425Y-2.315
X4.3425Y-2.3858
X4.3425Y-2.7402
X4.3425Y-2.7756
X4.3425Y-2.811
X4.3425Y-3.1102
X4.3543Y-3.4528
X4.3583Y-3.8524
X4.3583Y-4.0
X4.374Y-2.7244
X4.374Y-2.7598
X4.374Y-2.7953
X4.374Y-2.8307
X4.374Y-2.8661
X4.378Y-2.9016
X4.378Y-3.6575
X4.3819Y-2.9331
X4.3819Y-2.9646
X4.3819Y-3.0315
X4.3819Y-3.1142
X4.3898Y-2.9961
X4.3976Y-3.1457
X4.3976Y-3.687
X4.3996Y-3.8543
X4.4016Y-2.315
X4.4016Y-2.3858
X4.4094Y-2.7244
X4.4134Y-4.4764
X4.4134Y-4.7244
X4.4134Y-5.0236
X4.4213Y-3.0039
X4.4213Y-3.6575
X4.4252Y-3.0748
X4.4409Y-2.7244
X4.4606Y-3.2205
X4.4606Y-3.252
X4.4646Y-2.315
X4.4646Y-2.3858
X4.4724Y-2.7244
X4.4724Y-3.4291
X4.4882Y-3.2677
X4.4882Y-3.4961
X4.5039Y-2.7244
X4.5157Y-2.7598
X4.5157Y-2.7953
X4.5197Y-3.4961
X4.5197Y-3.6732
X4.5236Y-3.1772
X4.5236Y-3.2323
X4.5276Y-2.878
X4.5276Y-2.9134
X4.5276Y-2.9528
X4.5315Y-3.2756
X4.5354Y-2.7283
X4.5354Y-2.8307
X4.5394Y-3.7047
X4.5438Y-4.0482
X4.5438Y-4.0797
X4.5438Y-4.1112
X4.5438Y-4.1427
X4.5472Y-2.7756
X4.5512Y-3.4961
X4.5551Y-3.6732
X4.5556Y-4.0089
X4.5591Y-2.8622
X4.5591Y-2.8976
X4.5591Y-2.937
X4.5591Y-2.9724
X4.563Y-3.3228
X4.5669Y-3.3819
X4.5748Y-3.9626
X4.5753Y-4.1545
X4.5787Y-2.8307
X4.5787Y-3.7835
X4.5827Y-3.8465
X4.5866Y-3.1772
X4.5866Y-3.2323
X4.5871Y-4.0089
X4.5886Y-2.2992
X4.5886Y-2.4055
X4.5906Y-3.3504
X4.5984Y-2.8622
X4.5984Y-3.4094
X4.5984Y-3.815
X4.6024Y-2.8031
X4.6068Y-4.1545
X4.6083Y-3.9272
X4.6102Y-3.7835
X4.6142Y-3.8465
X4.6142Y-3.9646
X4.6181Y-2.8346
X4.6186Y-4.0089
X4.6299Y-2.2894
X4.6299Y-2.4134
X4.6299Y-2.8622
X4.6299Y-3.815
X4.6339Y-2.8031
X4.6417Y-3.7835
X4.6417Y-4.5984
X4.6417Y-4.8504
X4.6422Y-4.1545
X4.6457Y-3.8465
X4.6496Y-2.8346
X4.6496Y-3.1772
X4.6496Y-3.2323
X4.6501Y-4.0089
X4.6614Y-3.815
X4.6654Y-2.8622
X4.6693Y-2.2992
X4.6693Y-2.4055
X4.6693Y-2.8031
X4.6732Y-3.7835
X4.6777Y-4.1545
X4.6811Y-2.8346
X4.6811Y-4.0079
X4.689Y-3.1575
X4.6929Y-3.815
X4.7008Y-2.7953
X4.7008Y-2.8622
X4.7087Y-3.6181
X4.7087Y-3.6535
X4.7087Y-3.689
X4.7087Y-3.7205
X4.7087Y-3.752
X4.7087Y-3.7835
X4.7126Y-2.8268
X4.7126Y-4.1772
X4.7165Y-3.1575
X4.7165Y-3.2323
X4.7205Y-2.7677
X4.7303Y-4.2343
X4.7323Y-2.8583
X4.7362Y-2.7992
X4.7402Y-3.6339
X4.7402Y-3.6693
X4.7402Y-3.7047
X4.7402Y-3.7362
X4.7402Y-3.7677
X4.7441Y-3.1575
X4.7461Y-3.437
X4.7461Y-4.2028
X4.75Y-3.3898
X4.752Y-2.8268
X4.7539Y-3.2972
X4.7677Y-3.3425
X4.7697Y-3.2677
X4.7717Y-3.2244
X4.7835Y-4.0177
X4.7835Y-4.1476
X4.7913Y-4.3858
X4.7953Y-3.3268
X4.7953Y-3.3583
X4.8071Y-3.1339
X4.811Y-3.0984
X4.815Y-3.5748
X4.815Y-4.5197
X4.815Y-4.6063
X4.815Y-4.6811
X4.8189Y-2.4252
X4.8189Y-3.5157
X4.8228Y-4.0177
X4.8228Y-4.1476
X4.8346Y-4.7323
X4.8346Y-4.7677
X4.8465Y-2.4094
X4.8465Y-2.4409
X4.8543Y-3.4961
X4.8543Y-3.5866
X4.8543Y-3.626
X4.8622Y-4.0177
X4.8622Y-4.1476
X4.874Y-4.7687
X4.8898Y-3.5157
X4.9055Y-4.3976
X4.9094Y-4.2028
X4.9173Y-4.6693
X4.9252Y-3.1969
X4.9252Y-4.811
X4.9272Y-4.2343
X4.9272Y-4.5512
X4.9331Y-2.4094
X4.9331Y-2.4409
X4.937Y-4.1772
X4.937Y-4.7126
X4.9409Y-3.1654
X4.9567Y-3.1969
X4.9567Y-4.685
X4.9572Y-4.0689
X4.9587Y-2.4252
X4.9724Y-3.0827
X4.9724Y-3.1654
X4.9724Y-4.7126
X4.9847Y-4.1516
X4.9882Y-3.1969
X4.9887Y-4.0098
X4.9921Y-4.502
X5.0039Y-3.1654
X5.0157Y-4.4094
X5.0162Y-4.1516
X5.0197Y-3.1969
X5.0241Y-4.0098
X5.0315Y-3.2283
X5.0315Y-3.2598
X5.0315Y-3.9646
X5.0335Y-3.9252
X5.0354Y-3.1654
X5.0374Y-3.0827
X5.0394Y-3.4331
X5.0472Y-4.8543
X5.0472Y-4.8898
X5.0477Y-4.1516
X5.0512Y-3.1969
X5.0551Y-3.4016
X5.0635Y-4.0098
X5.0669Y-3.1654
X5.0669Y-3.2283
X5.0669Y-3.2598
X5.0669Y-4.5015
X5.0709Y-3.4331
X5.0728Y-3.9626
X5.0787Y-5.0118
X5.0792Y-4.1516
X5.0827Y-4.4764
X5.0866Y-4.8898
X5.0906Y-3.4016
X5.0984Y-3.0827
X5.0984Y-3.2638
X5.0984Y-4.5015
X5.1029Y-4.0098
X5.1063Y-3.4331
X5.1068Y-4.0413
X5.1068Y-4.1004
X5.1068Y-4.1319
X5.1102Y-4.5394
X5.1142Y-3.2362
X5.1142Y-3.7756
X5.1142Y-3.8386
X5.122Y-4.9606
X5.122Y-4.9921
X5.1225Y-4.0689
X5.126Y-3.4016
X5.1299Y-3.2638
X5.1378Y-4.9291
X5.1417Y-3.4331
X5.1437Y-2.4134
X5.1516Y-2.3839
X5.1516Y-2.4429
X5.1535Y-4.9606
X5.1535Y-4.9921
X5.1575Y-3.248
X5.1575Y-3.2795
X5.1575Y-4.5551
X5.1575Y-3.311
X5.1614Y-3.3701
X5.1614Y-3.4016
X5.1693Y-4.9291
X5.1732Y-4.5866
X5.1772Y-3.4331
X5.185Y-2.122
X5.185Y-2.372
X5.185Y-3.2323
X5.185Y-3.2638
X5.185Y-3.2953
X5.185Y-4.9606
X5.185Y-4.9921
X5.189Y-3.3504
X5.1929Y-3.3858
X5.2047Y-3.937
X5.2047Y-4.9291
X5.2087Y-3.4173
X5.2126Y-3.248
X5.2126Y-3.2795
X5.2126Y-3.311
X5.2205Y-4.9567
X5.2362Y-3.5748
X5.2362Y-3.6693
X5.2362Y-4.9252
X5.2441Y-3.2638
X5.2441Y-3.2953
X5.252Y-4.7598
X5.252Y-4.7913
X5.252Y-4.8268
X5.252Y-4.8622
X5.252Y-4.8976
X5.2559Y-4.7283
X5.2638Y-4.9488
X5.2795Y-4.3976
X5.2795Y-4.9213
X5.2815Y-4.5335
X5.2835Y-4.7677
X5.2835Y-4.8031
X5.2835Y-4.8425
X5.2835Y-4.8858
X5.2913Y-4.7323
X5.3031Y-4.0118
X5.3031Y-4.0512
X5.3031Y-4.1024
X5.3031Y-4.1339
X5.3071Y-3.1102
X5.3189Y-4.7638
X5.3189Y-4.7953
X5.3268Y-4.7323
X5.3287Y-3.9646
X5.3307Y-4.1535
X5.3425Y-4.0118
X5.3543Y-4.5906
X5.3543Y-4.7638
X5.3543Y-4.7953
X5.3622Y-3.9311
X5.3622Y-4.1535
X5.3622Y-4.7323
X5.3661Y-3.9685
X5.3661Y-4.5591
X5.3701Y-2.372
X5.3701Y-2.4488
X5.3819Y-4.0118
X5.3858Y-4.5906
X5.3858Y-4.7795
X5.3937Y-4.1535
X5.3937Y-4.7441
X5.4016Y-2.3819
X5.4016Y-2.4429
X5.4016Y-4.5591
X5.4016Y-4.8583
X5.4016Y-4.9252
X5.4016Y-4.9921
X5.4055Y-4.6181
X5.4055Y-4.6496
X5.4055Y-4.6811
X5.4055Y-4.7126
X5.4094Y-2.4134
X5.4213Y-4.0118
X5.4213Y-4.5906
X5.4252Y-4.1535
X5.4291Y-4.7441
X5.437Y-4.5591
X5.437Y-4.6181
X5.437Y-4.6496
X5.437Y-4.6811
X5.437Y-4.7126
X5.4528Y-4.5906
X5.4685Y-4.1772
X5.4685Y-4.6181
X5.4685Y-4.6496
X5.4744Y-4.3976
X5.4764Y-3.6732
X5.4961Y-4.2047
X5.5079Y-4.815
X5.5394Y-4.0236
X5.5394Y-4.1496
X5.5748Y-3.2992
X5.5787Y-4.0236
X5.5787Y-4.1496
X5.5807Y-4.4154
X5.5906Y-4.9961
X5.6063Y-3.622
X5.6181Y-4.0236
X5.6181Y-4.1496
X5.6299Y-2.0925
X5.6299Y-2.122
X5.6299Y-2.1516
X5.6299Y-2.3366
X5.6299Y-2.3661
X5.6299Y-2.3957
X5.6339Y-4.5453
X5.6594Y-2.063
X5.6594Y-2.1811
X5.6594Y-2.3071
X5.6594Y-2.4252
X5.6614Y-4.2047
X5.689Y-2.063
X5.689Y-2.1811
X5.689Y-2.3071
X5.689Y-2.4252
X5.689Y-4.1772
X5.6929Y-5.0394
X5.7165Y-4.0669
X5.7185Y-2.063
X5.7185Y-2.1811
X5.7185Y-2.3071
X5.7185Y-2.4252
X5.7244Y-2.8386
X5.7244Y-3.2047
X5.7244Y-3.5866
X5.7362Y-2.7953
X5.7362Y-3.1614
X5.7362Y-3.5433
X5.7441Y-4.1535
X5.748Y-2.0925
X5.748Y-2.122
X5.748Y-2.1516
X5.748Y-2.3366
X5.748Y-2.3661
X5.748Y-2.3957
X5.748Y-4.0118
X5.7559Y-2.8228
X5.7559Y-2.8543
X5.7559Y-3.189
X5.7559Y-3.2205
X5.7559Y-3.5709
X5.7559Y-3.6024
X5.7717Y-2.7913
X5.7717Y-3.1575
X5.7717Y-3.5394
X5.7756Y-4.1535
X5.7815Y-4.687
X5.7835Y-4.0118
X5.7874Y-2.9016
X5.7874Y-2.9331
X5.7874Y-3.2677
X5.7874Y-3.2992
X5.7874Y-3.6457
X5.7874Y-3.6772
X5.7913Y-2.622
X5.7913Y-2.689
X5.7913Y-2.8228
X5.7913Y-2.8543
X5.7913Y-2.9882
X5.7913Y-3.0551
X5.7913Y-3.189
X5.7913Y-3.2205
X5.7913Y-3.3661
X5.7913Y-3.5709
X5.7913Y-3.6024
X5.7913Y-3.9685
X5.7953Y-3.4331
X5.7953Y-3.9311
X5.8071Y-4.1535
X5.815Y-2.7992
X5.815Y-3.1654
X5.815Y-3.5472
X5.8189Y-2.9409
X5.8189Y-3.3071
X5.8189Y-3.685
X5.8228Y-4.0118
X5.8268Y-4.878
X5.8287Y-3.9685
X5.8287Y-4.9508
X5.8307Y-2.5787
X5.8386Y-4.1535
X5.8425Y-5.0354
X5.8465Y-2.7992
X5.8465Y-3.1654
X5.8465Y-3.5472
X5.8543Y-2.9409
X5.8543Y-3.3071
X5.8543Y-3.685
X5.8583Y-4.4409
X5.8622Y-4.0118
X5.8661Y-4.1024
X5.8661Y-4.1339
X5.8701Y-3.7795
X5.8701Y-3.8425
X5.874Y-4.0433
X5.8858Y-2.9409
X5.8858Y-3.3071
X5.8858Y-3.685
X5.8898Y-4.7795
X5.8898Y-4.9331
X5.8937Y-4.0709
X5.9055Y-2.0157
X5.9055Y-4.126
X5.9173Y-2.9409
X5.9173Y-3.3071
X5.9173Y-3.685
X5.9409Y-2.8976
X5.9409Y-3.2638
X5.9508Y-4.9272
X5.9764Y-4.1024
X5.9764Y-4.1378
X5.9764Y-4.1732
X6.0039Y-3.5197
X6.0039Y-3.6299
X6.0039Y-4.122
X6.0039Y-4.1575
X6.0039Y-4.1929
X6.0079Y-2.8858
X6.0079Y-2.9331
X6.0079Y-3.0433
X6.0079Y-3.1378
X6.0079Y-3.248
X6.0079Y-3.315
X6.0079Y-3.4252
X6.0118Y-2.5669
X6.0118Y-2.6772
X6.0118Y-2.7717
X6.0118Y-4.0866
X6.0157Y-4.5236
X6.0157Y-4.5551
X6.0276Y-4.0157
X6.0394Y-3.5197
X6.0394Y-3.6299
X6.0433Y-2.5669
X6.0433Y-2.6772
X6.0433Y-2.7717
X6.0433Y-2.8858
X6.0433Y-2.9331
X6.0433Y-3.0433
X6.0433Y-3.1378
X6.0433Y-3.248
X6.0433Y-3.315
X6.0433Y-3.4252
X6.0433Y-4.5787
X6.0748Y-2.5669
X6.0748Y-2.6772
X6.0748Y-2.7717
X6.0748Y-3.5197
X6.0748Y-3.6299
X6.0787Y-2.8858
X6.0787Y-2.9331
X6.0787Y-3.0433
X6.0787Y-3.1378
X6.0787Y-3.248
X6.0787Y-3.315
X6.0787Y-3.4252
X6.0787Y-4.2323
X6.0787Y-4.5787
X6.1142Y-4.2323
X6.1142Y-4.8661
X6.1142Y-5.0236
X6.1299Y-4.5787
X6.1339Y-4.4213
X6.1457Y-3.4606
X6.1457Y-3.5
X6.1457Y-4.0866
X6.1457Y-4.126
X6.1457Y-4.1654
X6.1457Y-4.2047
X6.1496Y-2.7165
X6.1496Y-2.7559
X6.1496Y-3.0866
X6.1496Y-3.126
X6.1575Y-4.2677
X6.1614Y-5.0787
X6.1732Y-4.5394
X6.1811Y-3.4606
X6.185Y-2.7165
X6.185Y-3.0866
X6.2165Y-3.4606
X6.2205Y-2.7165
X6.2205Y-3.0866
X6.2244Y-3.811
X6.2362Y-4.0801
X6.248Y-3.4134
X6.252Y-2.3858
X6.252Y-2.6654
X6.252Y-3.0315
X6.252Y-3.4606
X6.2559Y-2.7165
X6.2559Y-3.0866
X6.2638Y-3.7677
X6.2717Y-4.088
X6.2756Y-4.3701
X6.2835Y-2.4173
X6.2913Y-3.4606
X6.2913Y-3.5
X6.2953Y-2.7165
X6.2953Y-2.7559
X6.2953Y-3.0866
X6.2953Y-3.126
X6.3031Y-4.1116
X6.315Y-4.3701
X6.3228Y-2.4252
X6.3701Y-2.4252
X6.3701Y-4.3071
X6.3898Y-3.878
X6.3976Y-2.3543
X6.3976Y-2.3976
X6.4134Y-4.4449
X6.4173Y-3.8307
X6.4213Y-3.8622
X6.4488Y-2.3504
X6.4646Y-2.3976
X6.5374Y-2.3996
X6.5394Y-4.8071
X6.561Y-2.3465
X6.5787Y-2.5556
X6.5827Y-3.7874
X6.622Y-4.9173
X6.6929Y-4.1575
X6.6929Y-4.6614
X6.6929Y-4.7008
X6.7047Y-4.2874
X6.7205Y-4.2362
X6.7283Y-2.5512
X6.7283Y-4.189
X6.7323Y-2.0
X6.7461Y-4.2717
X6.7717Y-2.5394
X6.7717Y-2.5709
X6.7835Y-2.6575
X6.7835Y-4.8071
X6.7874Y-4.9173
X6.7913Y-2.5945
X6.8031Y-2.5236
X6.8031Y-2.5551
X6.8346Y-2.5236
X6.8346Y-2.5551
X6.8346Y-2.7244
X6.8504Y-4.5039
X6.8504Y-4.7008
X6.8504Y-4.9016
X6.8583Y-3.0394
X6.8583Y-3.5039
X6.8661Y-2.5236
X6.8661Y-2.5551
X6.8976Y-2.5236
X6.8976Y-2.5551
X6.9291Y-2.5236
X6.9291Y-2.5551
X6.9469Y-4.7874
X6.9606Y-2.5236
X6.9606Y-2.5551
X6.9843Y-5.0787
X6.9921Y-2.5236
X6.9921Y-2.5551
X6.9961Y-4.8858
X6.9961Y-4.9449
X7.0039Y-2.5945
X7.0236Y-2.5394
X7.0236Y-2.5709
X7.0354Y-4.0945
X7.0394Y-3.0394
X7.0394Y-4.1535
X7.0394Y-4.2087
X7.0394Y-4.8425
X7.0433Y-4.6693
X7.0827Y-4.4331
X7.0866Y-2.0
X7.0866Y-4.0512
X7.0906Y-4.2638
X7.0945Y-4.6339
X7.0984Y-4.4961
X7.1024Y-2.3169
X7.1142Y-2.0787
X7.126Y-2.3484
X7.1398Y-2.4252
X7.1417Y-4.0551
X7.1437Y-2.0551
X7.1457Y-4.1535
X7.1457Y-4.2638
X7.1575Y-2.3563
X7.1772Y-2.8071
X7.1791Y-2.0551
X7.1969Y-4.0551
X7.2004Y-2.5466
X7.2008Y-2.3504
X7.2008Y-2.3819
X7.2008Y-2.4134
X7.2008Y-2.4449
X7.2008Y-2.4764
X7.2008Y-2.5079
X7.2008Y-2.5827
X7.2008Y-2.626
X7.2008Y-4.2598
X7.2008Y-4.4961
X7.2106Y-2.061
X7.2126Y-2.0965
X7.2165Y-3.7953
X7.2323Y-2.3071
X7.2323Y-2.3504
X7.2323Y-2.3819
X7.2323Y-2.4134
X7.2323Y-2.4449
X7.2323Y-2.4764
X7.2323Y-2.5079
X7.2441Y-2.5472
X7.2441Y-4.0945
X7.248Y-2.5827
X7.248Y-2.626
X7.248Y-4.1535
X7.252Y-4.2126
X7.2638Y-3.689
X7.2717Y-2.3071
X7.2717Y-2.5157
X7.2913Y-2.5827
X7.2913Y-2.626
X7.315Y-3.622
X7.315Y-3.6535
X7.315Y-3.685
X7.315Y-4.4606
X7.3268Y-3.5945
X7.3307Y-3.0394
X7.3386Y-2.5827
X7.3386Y-2.626
X7.3465Y-3.622
X7.3465Y-3.6535
X7.3465Y-3.685
X7.3504Y-3.9252
X7.3543Y-2.0
X7.3543Y-2.0945
X7.3622Y-3.5945
X7.378Y-3.622
X7.3819Y-2.5827
X7.3819Y-2.626
X7.3819Y-3.5669
X7.3937Y-4.0669
X7.3937Y-4.7008
X7.3976Y-2.4291
X7.4016Y-3.5984
X7.4173Y-3.5669
X7.4213Y-3.626
X7.4252Y-4.622
X7.4291Y-4.4961
X7.437Y-3.5984
X7.4488Y-3.5669
X7.4567Y-3.626
X7.4567Y-5.0827
X7.4606Y-2.315
X7.4606Y-2.8504
X7.4646Y-4.4961
X7.4646Y-4.622
X7.4685Y-3.5945
X7.4961Y-2.0
X7.4961Y-2.0945
X7.563Y-2.5827
X7.563Y-2.626
X7.5827Y-2.6614
X7.5827Y-2.7008
X7.5827Y-2.7362
X7.6024Y-2.6299
X7.6142Y-2.5709
X7.6181Y-2.6811
X7.6181Y-2.7205
X7.626Y-2.7874
X7.626Y-2.8504
X7.6299Y-3.0394
X7.6378Y-2.6457
X7.6457Y-2.311
X7.6457Y-2.6024
X7.6535Y-2.6969
X7.6693Y-2.5748
X7.6811Y-2.3189
X7.689Y-2.3504
X7.7244Y-2.5315
X7.7559Y-2.7559
X7.8189Y-2.0157
X7.8189Y-3.3386
T2
X4.3773Y-3.7953
X4.4757Y-3.7953
X4.5283Y-2.3504
X4.6283Y-2.3504
X4.7283Y-2.3504
X6.3268Y-2.2677
X6.3268Y-2.3661
T3
X6.3238Y-2.0669
X6.4238Y-2.0669
X6.8Y-3.6549
X6.8Y-3.7549
X6.8583Y-3.1632
X6.8583Y-3.2632
X6.8583Y-3.3632
X6.9Y-3.6549
X6.9Y-3.7549
X7.0Y-3.6549
X7.0Y-3.7549
X7.0354Y-3.1632
X7.0354Y-3.2632
X7.0354Y-3.3632
X7.1526Y-4.8321
X7.1526Y-4.9321
X7.2126Y-3.1632
X7.2126Y-3.2632
X7.2126Y-3.3632
X7.2526Y-4.8321
X7.2526Y-4.9321
X7.3526Y-4.8321
X7.3526Y-4.9321
X7.3898Y-3.1632
X7.3898Y-3.2632
X7.3898Y-3.3632
T4
X4.4236Y-2.185
X4.8331Y-2.185
T5
X6.2717Y-4.9646
X6.3701Y-4.9646
X6.4685Y-4.9646
T6
X4.1911Y-4.4744
X4.1911Y-4.7244
X4.1911Y-4.9744
X4.6411Y-4.4744
X4.6411Y-4.7244
X4.6411Y-4.9744
T0
M30
