%TF.GenerationSoftware,KiCad,Pcbnew,7.0.4*%
%TF.CreationDate,2023-07-09T20:25:32+02:00*%
%TF.ProjectId,ample,616d706c-652e-46b6-9963-61645f706362,rev?*%
%TF.SameCoordinates,Original*%
%TF.FileFunction,Paste,Top*%
%TF.FilePolarity,Positive*%
%FSLAX46Y46*%
G04 Gerber Fmt 4.6, Leading zero omitted, Abs format (unit mm)*
G04 Created by KiCad (PCBNEW 7.0.4) date 2023-07-09 20:25:32*
%MOMM*%
%LPD*%
G01*
G04 APERTURE LIST*
G04 Aperture macros list*
%AMRoundRect*
0 Rectangle with rounded corners*
0 $1 Rounding radius*
0 $2 $3 $4 $5 $6 $7 $8 $9 X,Y pos of 4 corners*
0 Add a 4 corners polygon primitive as box body*
4,1,4,$2,$3,$4,$5,$6,$7,$8,$9,$2,$3,0*
0 Add four circle primitives for the rounded corners*
1,1,$1+$1,$2,$3*
1,1,$1+$1,$4,$5*
1,1,$1+$1,$6,$7*
1,1,$1+$1,$8,$9*
0 Add four rect primitives between the rounded corners*
20,1,$1+$1,$2,$3,$4,$5,0*
20,1,$1+$1,$4,$5,$6,$7,0*
20,1,$1+$1,$6,$7,$8,$9,0*
20,1,$1+$1,$8,$9,$2,$3,0*%
G04 Aperture macros list end*
%ADD10RoundRect,0.200000X-0.275000X0.200000X-0.275000X-0.200000X0.275000X-0.200000X0.275000X0.200000X0*%
%ADD11RoundRect,0.200000X0.200000X0.275000X-0.200000X0.275000X-0.200000X-0.275000X0.200000X-0.275000X0*%
%ADD12RoundRect,0.225000X-0.250000X0.225000X-0.250000X-0.225000X0.250000X-0.225000X0.250000X0.225000X0*%
%ADD13RoundRect,0.225000X-0.225000X-0.250000X0.225000X-0.250000X0.225000X0.250000X-0.225000X0.250000X0*%
%ADD14RoundRect,0.225000X0.250000X-0.225000X0.250000X0.225000X-0.250000X0.225000X-0.250000X-0.225000X0*%
%ADD15RoundRect,0.225000X0.225000X0.250000X-0.225000X0.250000X-0.225000X-0.250000X0.225000X-0.250000X0*%
%ADD16R,0.400000X1.500000*%
%ADD17R,1.200000X2.600000*%
%ADD18RoundRect,0.200000X-0.200000X-0.275000X0.200000X-0.275000X0.200000X0.275000X-0.200000X0.275000X0*%
%ADD19RoundRect,0.200000X0.275000X-0.200000X0.275000X0.200000X-0.275000X0.200000X-0.275000X-0.200000X0*%
%ADD20RoundRect,0.250000X-0.255000X0.255000X-0.255000X-0.255000X0.255000X-0.255000X0.255000X0.255000X0*%
%ADD21RoundRect,0.062500X-0.062500X0.350000X-0.062500X-0.350000X0.062500X-0.350000X0.062500X0.350000X0*%
%ADD22RoundRect,0.062500X-0.350000X0.062500X-0.350000X-0.062500X0.350000X-0.062500X0.350000X0.062500X0*%
%ADD23R,1.450000X0.450000*%
%ADD24R,1.570000X1.890000*%
%ADD25RoundRect,0.242500X0.422500X-0.242500X0.422500X0.242500X-0.422500X0.242500X-0.422500X-0.242500X0*%
%ADD26RoundRect,0.150000X0.150000X-0.825000X0.150000X0.825000X-0.150000X0.825000X-0.150000X-0.825000X0*%
%ADD27RoundRect,0.218750X-0.256250X0.218750X-0.256250X-0.218750X0.256250X-0.218750X0.256250X0.218750X0*%
%ADD28RoundRect,0.150000X0.150000X-0.725000X0.150000X0.725000X-0.150000X0.725000X-0.150000X-0.725000X0*%
%ADD29RoundRect,0.150000X-0.150000X0.587500X-0.150000X-0.587500X0.150000X-0.587500X0.150000X0.587500X0*%
%ADD30RoundRect,0.250000X-0.475000X0.250000X-0.475000X-0.250000X0.475000X-0.250000X0.475000X0.250000X0*%
%ADD31R,1.700000X5.700000*%
%ADD32RoundRect,0.075000X-0.700000X-0.075000X0.700000X-0.075000X0.700000X0.075000X-0.700000X0.075000X0*%
%ADD33RoundRect,0.075000X-0.075000X-0.700000X0.075000X-0.700000X0.075000X0.700000X-0.075000X0.700000X0*%
%ADD34R,0.900000X1.500000*%
%ADD35R,0.900000X0.900000*%
%ADD36RoundRect,0.150000X-0.587500X-0.150000X0.587500X-0.150000X0.587500X0.150000X-0.587500X0.150000X0*%
%ADD37RoundRect,0.150000X-0.825000X-0.150000X0.825000X-0.150000X0.825000X0.150000X-0.825000X0.150000X0*%
%ADD38RoundRect,0.250000X0.475000X-0.250000X0.475000X0.250000X-0.475000X0.250000X-0.475000X-0.250000X0*%
%ADD39R,4.100000X4.100000*%
%ADD40RoundRect,0.200000X-0.200000X-0.250000X0.200000X-0.250000X0.200000X0.250000X-0.200000X0.250000X0*%
%ADD41RoundRect,0.218750X0.256250X-0.218750X0.256250X0.218750X-0.256250X0.218750X-0.256250X-0.218750X0*%
%ADD42R,2.000000X2.000000*%
G04 APERTURE END LIST*
D10*
%TO.C,R63*%
X121512500Y-106775000D03*
X121512500Y-108425000D03*
%TD*%
D11*
%TO.C,R21*%
X158825000Y-65000000D03*
X157175000Y-65000000D03*
%TD*%
D12*
%TO.C,C6*%
X155700000Y-113700000D03*
X155700000Y-115250000D03*
%TD*%
D13*
%TO.C,C3*%
X157225000Y-75900000D03*
X158775000Y-75900000D03*
%TD*%
D14*
%TO.C,C100*%
X128612500Y-104425000D03*
X128612500Y-102875000D03*
%TD*%
D10*
%TO.C,R55*%
X121612500Y-99050000D03*
X121612500Y-100700000D03*
%TD*%
D14*
%TO.C,C37*%
X124250000Y-61425000D03*
X124250000Y-59875000D03*
%TD*%
D13*
%TO.C,C55*%
X116925000Y-91900000D03*
X118475000Y-91900000D03*
%TD*%
D15*
%TO.C,C58*%
X121375000Y-75300001D03*
X119825000Y-75300001D03*
%TD*%
D11*
%TO.C,R59*%
X119837500Y-99000000D03*
X118187500Y-99000000D03*
%TD*%
%TO.C,R57*%
X138925000Y-99200000D03*
X137275000Y-99200000D03*
%TD*%
D10*
%TO.C,R19*%
X195035000Y-62675000D03*
X195035000Y-64325000D03*
%TD*%
D16*
%TO.C,U8*%
X106670000Y-63600000D03*
X106020000Y-63600000D03*
X105370000Y-63600000D03*
X105370000Y-66260000D03*
X106670000Y-66260000D03*
%TD*%
D17*
%TO.C,L2*%
X185950000Y-71300000D03*
X178650000Y-71300000D03*
%TD*%
D18*
%TO.C,R30*%
X113775000Y-76900000D03*
X115425000Y-76900000D03*
%TD*%
D11*
%TO.C,R3*%
X158825000Y-74300000D03*
X157175000Y-74300000D03*
%TD*%
D15*
%TO.C,C97*%
X119762500Y-100675000D03*
X118212500Y-100675000D03*
%TD*%
%TO.C,C47*%
X113675000Y-71900000D03*
X112125000Y-71900000D03*
%TD*%
D19*
%TO.C,R18*%
X193400000Y-64350000D03*
X193400000Y-62700000D03*
%TD*%
D12*
%TO.C,C71*%
X130000000Y-83825000D03*
X130000000Y-85375000D03*
%TD*%
D15*
%TO.C,C62*%
X118375000Y-73700001D03*
X116825000Y-73700001D03*
%TD*%
D14*
%TO.C,C103*%
X127012500Y-104425000D03*
X127012500Y-102875000D03*
%TD*%
D10*
%TO.C,R31*%
X105010001Y-90050000D03*
X105010001Y-91700000D03*
%TD*%
D14*
%TO.C,C29*%
X175200000Y-67475000D03*
X175200000Y-65925000D03*
%TD*%
D10*
%TO.C,R61*%
X140700000Y-106800000D03*
X140700000Y-108450000D03*
%TD*%
D12*
%TO.C,C66*%
X123099999Y-75750001D03*
X123099999Y-77300001D03*
%TD*%
D20*
%TO.C,U10*%
X128700000Y-116675000D03*
X127450000Y-116675000D03*
X128700000Y-117925000D03*
X127450000Y-117925000D03*
D21*
X129075000Y-115362500D03*
X128575000Y-115362500D03*
X128075000Y-115362500D03*
X127575000Y-115362500D03*
X127075000Y-115362500D03*
D22*
X126137500Y-116300000D03*
X126137500Y-116800000D03*
X126137500Y-117300000D03*
X126137500Y-117800000D03*
X126137500Y-118300000D03*
D21*
X127075000Y-119237500D03*
X127575000Y-119237500D03*
X128075000Y-119237500D03*
X128575000Y-119237500D03*
X129075000Y-119237500D03*
D22*
X130012500Y-118300000D03*
X130012500Y-117800000D03*
X130012500Y-117300000D03*
X130012500Y-116800000D03*
X130012500Y-116300000D03*
%TD*%
D19*
%TO.C,R43*%
X162299998Y-119425000D03*
X162299998Y-117775000D03*
%TD*%
D14*
%TO.C,C2*%
X157200000Y-80975000D03*
X157200000Y-79425000D03*
%TD*%
%TO.C,C98*%
X146200000Y-104475000D03*
X146200000Y-102925000D03*
%TD*%
D23*
%TO.C,U13*%
X120300000Y-102675000D03*
X120300000Y-103325000D03*
X120300000Y-103975000D03*
X120300000Y-104625000D03*
X124700000Y-104625000D03*
X124700000Y-103975000D03*
X124700000Y-103325000D03*
X124700000Y-102675000D03*
D24*
X122500000Y-103750000D03*
%TD*%
D15*
%TO.C,C17*%
X186300000Y-61300000D03*
X184750000Y-61300000D03*
%TD*%
D11*
%TO.C,R5*%
X149825000Y-75900000D03*
X148175000Y-75900000D03*
%TD*%
D13*
%TO.C,C13*%
X191000000Y-70800000D03*
X192550000Y-70800000D03*
%TD*%
D15*
%TO.C,C90*%
X172700000Y-117700000D03*
X171150000Y-117700000D03*
%TD*%
D10*
%TO.C,R32*%
X103300000Y-90050000D03*
X103300000Y-91700000D03*
%TD*%
D14*
%TO.C,C89*%
X178800000Y-125675000D03*
X178800000Y-124125000D03*
%TD*%
D10*
%TO.C,R6*%
X154000000Y-113675000D03*
X154000000Y-115325000D03*
%TD*%
%TO.C,R42*%
X169400000Y-124875000D03*
X169400000Y-126525000D03*
%TD*%
D13*
%TO.C,C87*%
X187625000Y-94800000D03*
X189175000Y-94800000D03*
%TD*%
D14*
%TO.C,C41*%
X108420000Y-66480000D03*
X108420000Y-64930000D03*
%TD*%
D10*
%TO.C,R64*%
X148100000Y-95975000D03*
X148100000Y-97625000D03*
%TD*%
D15*
%TO.C,C93*%
X123287500Y-97450000D03*
X121737500Y-97450000D03*
%TD*%
D25*
%TO.C,U3*%
X188950000Y-66800000D03*
X190600000Y-66800000D03*
X188950000Y-65600000D03*
X190600000Y-65600000D03*
D26*
X187870000Y-68675000D03*
X189140000Y-68675000D03*
X190410000Y-68675000D03*
X191680000Y-68675000D03*
X191680000Y-63725000D03*
X190410000Y-63725000D03*
X189140000Y-63725000D03*
X187870000Y-63725000D03*
%TD*%
D10*
%TO.C,R17*%
X152625000Y-98940000D03*
X152625000Y-100590000D03*
%TD*%
D13*
%TO.C,C15*%
X159150000Y-114765000D03*
X160700000Y-114765000D03*
%TD*%
D19*
%TO.C,R45*%
X165700000Y-119425000D03*
X165700000Y-117775000D03*
%TD*%
D12*
%TO.C,C82*%
X131450000Y-117600000D03*
X131450000Y-119150000D03*
%TD*%
D15*
%TO.C,C63*%
X121375000Y-73700001D03*
X119825000Y-73700001D03*
%TD*%
D13*
%TO.C,C76*%
X130825000Y-120900000D03*
X132375000Y-120900000D03*
%TD*%
D12*
%TO.C,C26*%
X149800000Y-91100000D03*
X149800000Y-92650000D03*
%TD*%
D13*
%TO.C,C75*%
X130825000Y-124100000D03*
X132375000Y-124100000D03*
%TD*%
D19*
%TO.C,R7*%
X162900000Y-108650000D03*
X162900000Y-107000000D03*
%TD*%
D27*
%TO.C,D2*%
X171100000Y-124912500D03*
X171100000Y-126487500D03*
%TD*%
D18*
%TO.C,R27*%
X103349999Y-93500000D03*
X104999999Y-93500000D03*
%TD*%
D28*
%TO.C,U4*%
X151595000Y-90775000D03*
X152865000Y-90775000D03*
X154135000Y-90775000D03*
X155405000Y-90775000D03*
X155405000Y-85625000D03*
X154135000Y-85625000D03*
X152865000Y-85625000D03*
X151595000Y-85625000D03*
%TD*%
D12*
%TO.C,C81*%
X123800000Y-118525000D03*
X123800000Y-120075000D03*
%TD*%
D13*
%TO.C,C20*%
X157124999Y-85600000D03*
X158674999Y-85600000D03*
%TD*%
%TO.C,C25*%
X192700000Y-59700000D03*
X194250000Y-59700000D03*
%TD*%
D10*
%TO.C,R53*%
X140700000Y-99175000D03*
X140700000Y-100825000D03*
%TD*%
D18*
%TO.C,R12*%
X148175000Y-87200000D03*
X149825000Y-87200000D03*
%TD*%
D12*
%TO.C,C4*%
X149800000Y-81400000D03*
X149800000Y-82950000D03*
%TD*%
D15*
%TO.C,C60*%
X118400000Y-75300001D03*
X116850000Y-75300001D03*
%TD*%
D10*
%TO.C,R35*%
X151162501Y-122337500D03*
X151162501Y-123987500D03*
%TD*%
D13*
%TO.C,C78*%
X130825000Y-122500000D03*
X132375000Y-122500000D03*
%TD*%
D19*
%TO.C,R20*%
X163600000Y-101925000D03*
X163600000Y-100275000D03*
%TD*%
D29*
%TO.C,Q3*%
X154800000Y-126200000D03*
X152900000Y-126200000D03*
X153850000Y-128075000D03*
%TD*%
D10*
%TO.C,R52*%
X142700000Y-99175000D03*
X142700000Y-100825000D03*
%TD*%
D14*
%TO.C,C16*%
X157200000Y-90475000D03*
X157200000Y-88925000D03*
%TD*%
D18*
%TO.C,R58*%
X125187500Y-99000000D03*
X126837500Y-99000000D03*
%TD*%
D13*
%TO.C,C88*%
X187625000Y-96400000D03*
X189175000Y-96400000D03*
%TD*%
D30*
%TO.C,C10*%
X181950000Y-56800000D03*
X181950000Y-58700000D03*
%TD*%
D15*
%TO.C,C101*%
X123287500Y-110100000D03*
X121737500Y-110100000D03*
%TD*%
D14*
%TO.C,C43*%
X108400000Y-81600000D03*
X108400000Y-80050000D03*
%TD*%
D15*
%TO.C,C92*%
X142475000Y-97575000D03*
X140925000Y-97575000D03*
%TD*%
D18*
%TO.C,R23*%
X148175000Y-68300000D03*
X149825000Y-68300000D03*
%TD*%
D12*
%TO.C,C69*%
X127899999Y-75724999D03*
X127899999Y-77274999D03*
%TD*%
D15*
%TO.C,C14*%
X186300000Y-59700000D03*
X184750000Y-59700000D03*
%TD*%
D18*
%TO.C,R4*%
X148175000Y-77600000D03*
X149825000Y-77600000D03*
%TD*%
D12*
%TO.C,C67*%
X124699999Y-75750000D03*
X124699999Y-77300000D03*
%TD*%
D15*
%TO.C,C91*%
X186075000Y-96400000D03*
X184525000Y-96400000D03*
%TD*%
D12*
%TO.C,C85*%
X129175000Y-121650000D03*
X129175000Y-123200000D03*
%TD*%
%TO.C,C36*%
X148125001Y-72095000D03*
X148125001Y-73645000D03*
%TD*%
D14*
%TO.C,C64*%
X126716044Y-83806497D03*
X126716044Y-82256497D03*
%TD*%
D29*
%TO.C,Q2*%
X154812501Y-122162498D03*
X152912501Y-122162498D03*
X153862501Y-124037498D03*
%TD*%
D12*
%TO.C,C49*%
X110100000Y-84425000D03*
X110100000Y-85975000D03*
%TD*%
D13*
%TO.C,C86*%
X187625000Y-93200000D03*
X189175000Y-93200000D03*
%TD*%
D10*
%TO.C,R50*%
X123412500Y-94200000D03*
X123412500Y-95850000D03*
%TD*%
D15*
%TO.C,C61*%
X121400000Y-76900000D03*
X119850000Y-76900000D03*
%TD*%
D31*
%TO.C,L3*%
X128000000Y-56950000D03*
X134000000Y-56950000D03*
%TD*%
D15*
%TO.C,C21*%
X186275000Y-62900000D03*
X184725000Y-62900000D03*
%TD*%
D13*
%TO.C,C33*%
X160425000Y-97500000D03*
X161975000Y-97500000D03*
%TD*%
%TO.C,C40*%
X131725000Y-61300000D03*
X133275000Y-61300000D03*
%TD*%
D19*
%TO.C,R11*%
X191200000Y-61400000D03*
X191200000Y-59750000D03*
%TD*%
D12*
%TO.C,C80*%
X136250000Y-117600000D03*
X136250000Y-119150000D03*
%TD*%
D14*
%TO.C,C105*%
X118212500Y-104425000D03*
X118212500Y-102875000D03*
%TD*%
D23*
%TO.C,U12*%
X139500000Y-102725000D03*
X139500000Y-103375000D03*
X139500000Y-104025000D03*
X139500000Y-104675000D03*
X143900000Y-104675000D03*
X143900000Y-104025000D03*
X143900000Y-103375000D03*
X143900000Y-102725000D03*
D24*
X141700000Y-103800000D03*
%TD*%
D10*
%TO.C,R48*%
X142500000Y-94350000D03*
X142500000Y-96000000D03*
%TD*%
D18*
%TO.C,R38*%
X141475000Y-123400000D03*
X143125000Y-123400000D03*
%TD*%
D14*
%TO.C,C104*%
X135700000Y-104475000D03*
X135700000Y-102925000D03*
%TD*%
D32*
%TO.C,U9*%
X111925000Y-80650000D03*
X111925000Y-81150000D03*
X111925000Y-81650000D03*
X111925000Y-82150000D03*
X111925000Y-82650000D03*
X111925000Y-83150000D03*
X111925000Y-83650000D03*
X111925000Y-84150000D03*
X111925000Y-84650000D03*
X111925000Y-85150000D03*
X111925000Y-85650000D03*
X111925000Y-86150000D03*
X111925000Y-86650000D03*
X111925000Y-87150000D03*
X111925000Y-87650000D03*
X111925000Y-88150000D03*
D33*
X113850000Y-90075000D03*
X114350000Y-90075000D03*
X114850000Y-90075000D03*
X115350000Y-90075000D03*
X115850000Y-90075000D03*
X116350000Y-90075000D03*
X116850000Y-90075000D03*
X117350000Y-90075000D03*
X117850000Y-90075000D03*
X118350000Y-90075000D03*
X118850000Y-90075000D03*
X119350000Y-90075000D03*
X119850000Y-90075000D03*
X120350000Y-90075000D03*
X120850000Y-90075000D03*
X121350000Y-90075000D03*
D32*
X123275000Y-88150000D03*
X123275000Y-87650000D03*
X123275000Y-87150000D03*
X123275000Y-86650000D03*
X123275000Y-86150000D03*
X123275000Y-85650000D03*
X123275000Y-85150000D03*
X123275000Y-84650000D03*
X123275000Y-84150000D03*
X123275000Y-83650000D03*
X123275000Y-83150000D03*
X123275000Y-82650000D03*
X123275000Y-82150000D03*
X123275000Y-81650000D03*
X123275000Y-81150000D03*
X123275000Y-80650000D03*
D33*
X121350000Y-78725000D03*
X120850000Y-78725000D03*
X120350000Y-78725000D03*
X119850000Y-78725000D03*
X119350000Y-78725000D03*
X118850000Y-78725000D03*
X118350000Y-78725000D03*
X117850000Y-78725000D03*
X117350000Y-78725000D03*
X116850000Y-78725000D03*
X116350000Y-78725000D03*
X115850000Y-78725000D03*
X115350000Y-78725000D03*
X114850000Y-78725000D03*
X114350000Y-78725000D03*
X113850000Y-78725000D03*
%TD*%
D13*
%TO.C,C94*%
X144525000Y-100800000D03*
X146075000Y-100800000D03*
%TD*%
D18*
%TO.C,R15*%
X156500000Y-95665000D03*
X158150000Y-95665000D03*
%TD*%
D19*
%TO.C,R34*%
X138275000Y-126775000D03*
X138275000Y-125125000D03*
%TD*%
D15*
%TO.C,C42*%
X105000000Y-95200000D03*
X103450000Y-95200000D03*
%TD*%
D12*
%TO.C,C68*%
X126299999Y-75750000D03*
X126299999Y-77300000D03*
%TD*%
D11*
%TO.C,R9*%
X158750000Y-84000000D03*
X157100000Y-84000000D03*
%TD*%
D10*
%TO.C,R36*%
X151200000Y-126300000D03*
X151200000Y-127950000D03*
%TD*%
D15*
%TO.C,C39*%
X136375000Y-61300000D03*
X134825000Y-61300000D03*
%TD*%
%TO.C,C77*%
X127650000Y-122225000D03*
X126100000Y-122225000D03*
%TD*%
D18*
%TO.C,R1*%
X181275000Y-117700000D03*
X182925000Y-117700000D03*
%TD*%
D13*
%TO.C,C19*%
X153550000Y-104665001D03*
X155100000Y-104665001D03*
%TD*%
D15*
%TO.C,C83*%
X126975000Y-120725000D03*
X125425000Y-120725000D03*
%TD*%
D14*
%TO.C,C107*%
X116512500Y-104425000D03*
X116512500Y-102875000D03*
%TD*%
%TO.C,C102*%
X147900000Y-104475000D03*
X147900000Y-102925000D03*
%TD*%
D15*
%TO.C,C46*%
X113675000Y-70300000D03*
X112125000Y-70300000D03*
%TD*%
D13*
%TO.C,C38*%
X106025000Y-59700000D03*
X107575000Y-59700000D03*
%TD*%
%TO.C,C96*%
X125237500Y-100675000D03*
X126787500Y-100675000D03*
%TD*%
D18*
%TO.C,R46*%
X171075000Y-119400000D03*
X172725000Y-119400000D03*
%TD*%
D12*
%TO.C,C84*%
X133050000Y-117600000D03*
X133050000Y-119150000D03*
%TD*%
D15*
%TO.C,C99*%
X142475000Y-110100000D03*
X140925000Y-110100000D03*
%TD*%
D14*
%TO.C,C31*%
X158800000Y-71575000D03*
X158800000Y-70025000D03*
%TD*%
D19*
%TO.C,R44*%
X163999999Y-119425000D03*
X163999999Y-117775000D03*
%TD*%
D34*
%TO.C,U11*%
X189260000Y-98250000D03*
X187990000Y-98250000D03*
X186720000Y-98250000D03*
X185450000Y-98250000D03*
X184180000Y-98250000D03*
X182910000Y-98250000D03*
X181640000Y-98250000D03*
X180370000Y-98250000D03*
X179100000Y-98250000D03*
X177830000Y-98250000D03*
X176560000Y-98250000D03*
X175290000Y-98250000D03*
X174020000Y-98250000D03*
X172750000Y-98250000D03*
X171480000Y-98250000D03*
X170210000Y-98250000D03*
X168940000Y-98250000D03*
X167670000Y-98250000D03*
X166400000Y-98250000D03*
X166400000Y-115750000D03*
X167670000Y-115750000D03*
X168940000Y-115750000D03*
X170210000Y-115750000D03*
X171480000Y-115750000D03*
X172750000Y-115750000D03*
X174020000Y-115750000D03*
X175290000Y-115750000D03*
X176560000Y-115750000D03*
X177830000Y-115750000D03*
X179100000Y-115750000D03*
X180370000Y-115750000D03*
X181640000Y-115750000D03*
X182910000Y-115750000D03*
X184180000Y-115750000D03*
X185450000Y-115750000D03*
X186720000Y-115750000D03*
X187990000Y-115750000D03*
X189260000Y-115750000D03*
D35*
X182860000Y-104100000D03*
X181460000Y-104100000D03*
X180060000Y-104100000D03*
X182860000Y-105500000D03*
X181460000Y-105500000D03*
X180060000Y-105500000D03*
X182860000Y-106900000D03*
X181460000Y-106900000D03*
X180060000Y-106900000D03*
%TD*%
D12*
%TO.C,C28*%
X148200000Y-91100000D03*
X148200000Y-92650000D03*
%TD*%
D19*
%TO.C,R40*%
X149650000Y-127962500D03*
X149650000Y-126312500D03*
%TD*%
D36*
%TO.C,Q1*%
X140200000Y-125000000D03*
X140200000Y-126900000D03*
X142075000Y-125950000D03*
%TD*%
D18*
%TO.C,R33*%
X125175000Y-88400000D03*
X126825000Y-88400000D03*
%TD*%
D30*
%TO.C,C8*%
X165150000Y-57700000D03*
X165150000Y-59600000D03*
%TD*%
D37*
%TO.C,U5*%
X154950000Y-99160000D03*
X154950000Y-100430000D03*
X154950000Y-101700000D03*
X154950000Y-102970000D03*
X159900000Y-102970000D03*
X159900000Y-101700000D03*
X159900000Y-100430000D03*
X159900000Y-99160000D03*
%TD*%
D38*
%TO.C,C11*%
X181950000Y-55150000D03*
X181950000Y-53250000D03*
%TD*%
D10*
%TO.C,R29*%
X103300000Y-74975000D03*
X103300000Y-76625000D03*
%TD*%
D19*
%TO.C,R22*%
X168100000Y-64862500D03*
X168100000Y-63212500D03*
%TD*%
D14*
%TO.C,C12*%
X158800000Y-90475000D03*
X158800000Y-88925000D03*
%TD*%
D12*
%TO.C,C35*%
X149800000Y-72100000D03*
X149800000Y-73650000D03*
%TD*%
D10*
%TO.C,R65*%
X128900000Y-95925000D03*
X128900000Y-97575000D03*
%TD*%
D12*
%TO.C,C7*%
X148099999Y-81400000D03*
X148099999Y-82950000D03*
%TD*%
D14*
%TO.C,C73*%
X126900000Y-86875000D03*
X126900000Y-85325000D03*
%TD*%
D13*
%TO.C,C24*%
X187925000Y-70800000D03*
X189475000Y-70800000D03*
%TD*%
%TO.C,C56*%
X116925000Y-95000000D03*
X118475000Y-95000000D03*
%TD*%
D11*
%TO.C,R37*%
X139925000Y-123400000D03*
X138275000Y-123400000D03*
%TD*%
D14*
%TO.C,C27*%
X176800000Y-67475000D03*
X176800000Y-65925000D03*
%TD*%
D39*
%TO.C,L1*%
X168850000Y-55800000D03*
X178350000Y-55800000D03*
%TD*%
D19*
%TO.C,R10*%
X189500000Y-61425000D03*
X189500000Y-59775000D03*
%TD*%
D12*
%TO.C,C9*%
X162900000Y-110300000D03*
X162900000Y-111850000D03*
%TD*%
D14*
%TO.C,C52*%
X110000000Y-91850000D03*
X110000000Y-90300000D03*
%TD*%
%TO.C,C106*%
X137400000Y-104475000D03*
X137400000Y-102925000D03*
%TD*%
D13*
%TO.C,C23*%
X154950000Y-97265000D03*
X156500000Y-97265000D03*
%TD*%
D26*
%TO.C,U2*%
X157420000Y-112540000D03*
X158690000Y-112540000D03*
X159960000Y-112540000D03*
X161230000Y-112540000D03*
X161230000Y-107590000D03*
X159960000Y-107590000D03*
X158690000Y-107590000D03*
X157420000Y-107590000D03*
%TD*%
D14*
%TO.C,C44*%
X106799999Y-81625000D03*
X106799999Y-80075000D03*
%TD*%
D40*
%TO.C,X1*%
X112275000Y-73475000D03*
X112275000Y-75325000D03*
X113725000Y-75325000D03*
X113725000Y-73475000D03*
%TD*%
D14*
%TO.C,C32*%
X157200000Y-71575000D03*
X157200000Y-70025000D03*
%TD*%
D13*
%TO.C,C54*%
X113725000Y-92100000D03*
X115275000Y-92100000D03*
%TD*%
%TO.C,C59*%
X116925000Y-93500000D03*
X118475000Y-93500000D03*
%TD*%
D19*
%TO.C,R28*%
X104900000Y-76650000D03*
X104900000Y-75000000D03*
%TD*%
D12*
%TO.C,C50*%
X108500001Y-84425000D03*
X108500001Y-85975000D03*
%TD*%
%TO.C,C70*%
X129499999Y-75750000D03*
X129499999Y-77300000D03*
%TD*%
%TO.C,C79*%
X134650000Y-117600000D03*
X134650000Y-119150000D03*
%TD*%
D18*
%TO.C,R47*%
X177475000Y-121600000D03*
X179125000Y-121600000D03*
%TD*%
D11*
%TO.C,R8*%
X192625000Y-72400000D03*
X190975000Y-72400000D03*
%TD*%
D14*
%TO.C,C1*%
X158800000Y-80975000D03*
X158800000Y-79425000D03*
%TD*%
D19*
%TO.C,R39*%
X149562501Y-123999998D03*
X149562501Y-122349998D03*
%TD*%
D15*
%TO.C,C57*%
X118400000Y-76900001D03*
X116850000Y-76900001D03*
%TD*%
%TO.C,C95*%
X138875000Y-100800000D03*
X137325000Y-100800000D03*
%TD*%
D19*
%TO.C,R2*%
X186700000Y-119425000D03*
X186700000Y-117775000D03*
%TD*%
D10*
%TO.C,R62*%
X123600000Y-106775000D03*
X123600000Y-108425000D03*
%TD*%
%TO.C,R54*%
X123412500Y-99050000D03*
X123412500Y-100700000D03*
%TD*%
D18*
%TO.C,R56*%
X144475000Y-99200000D03*
X146125000Y-99200000D03*
%TD*%
D14*
%TO.C,C30*%
X173600000Y-67450000D03*
X173600000Y-65900000D03*
%TD*%
D41*
%TO.C,D1*%
X169800000Y-64800000D03*
X169800000Y-63225000D03*
%TD*%
D12*
%TO.C,C72*%
X128400000Y-83825000D03*
X128400000Y-85375000D03*
%TD*%
D11*
%TO.C,R13*%
X149800000Y-85600001D03*
X148150000Y-85600001D03*
%TD*%
D42*
%TO.C,J1*%
X155500000Y-60050000D03*
X155500000Y-53900000D03*
X144500000Y-53900000D03*
X144500000Y-60050000D03*
%TD*%
D12*
%TO.C,C51*%
X111600000Y-90300000D03*
X111600000Y-91850000D03*
%TD*%
D10*
%TO.C,R60*%
X142700000Y-106800000D03*
X142700000Y-108450000D03*
%TD*%
D11*
%TO.C,R24*%
X149825000Y-66600000D03*
X148175000Y-66600000D03*
%TD*%
D10*
%TO.C,R51*%
X121612500Y-94200000D03*
X121612500Y-95850000D03*
%TD*%
D14*
%TO.C,C65*%
X125166043Y-83831497D03*
X125166043Y-82281497D03*
%TD*%
%TO.C,C74*%
X125200000Y-86875000D03*
X125200000Y-85325000D03*
%TD*%
D11*
%TO.C,R25*%
X106025000Y-61400000D03*
X104375000Y-61400000D03*
%TD*%
D14*
%TO.C,C45*%
X109999999Y-81625000D03*
X109999999Y-80075000D03*
%TD*%
D11*
%TO.C,R66*%
X186125000Y-94800000D03*
X184475000Y-94800000D03*
%TD*%
D28*
%TO.C,U6*%
X151595000Y-71775000D03*
X152865000Y-71775000D03*
X154135000Y-71775000D03*
X155405000Y-71775000D03*
X155405000Y-66625000D03*
X154135000Y-66625000D03*
X152865000Y-66625000D03*
X151595000Y-66625000D03*
%TD*%
D11*
%TO.C,R41*%
X169925000Y-96200000D03*
X168275000Y-96200000D03*
%TD*%
D18*
%TO.C,R26*%
X108370000Y-63130000D03*
X110020000Y-63130000D03*
%TD*%
D12*
%TO.C,C48*%
X106900000Y-84425000D03*
X106900000Y-85975000D03*
%TD*%
D13*
%TO.C,C18*%
X157250000Y-104800000D03*
X158800000Y-104800000D03*
%TD*%
D28*
%TO.C,U1*%
X151595000Y-81075000D03*
X152865000Y-81075000D03*
X154135000Y-81075000D03*
X155405000Y-81075000D03*
X155405000Y-75925000D03*
X154135000Y-75925000D03*
X152865000Y-75925000D03*
X151595000Y-75925000D03*
%TD*%
D10*
%TO.C,R16*%
X162000000Y-100275000D03*
X162000000Y-101925000D03*
%TD*%
D13*
%TO.C,C34*%
X157225000Y-66600000D03*
X158775000Y-66600000D03*
%TD*%
D10*
%TO.C,R49*%
X140900000Y-94350000D03*
X140900000Y-96000000D03*
%TD*%
D13*
%TO.C,C22*%
X153550000Y-106365000D03*
X155100000Y-106365000D03*
%TD*%
D18*
%TO.C,R14*%
X153300000Y-95665000D03*
X154950000Y-95665000D03*
%TD*%
M02*
